<svg width="41" height="41" viewBox="0 0 41 41" fill="none" xmlns="http://www.w3.org/2000/svg">
<path fill-rule="evenodd" clip-rule="evenodd" d="M0 0H41V41H0V0Z" fill="white"/>
<path fill-rule="evenodd" clip-rule="evenodd" d="M1.8046 37.7973H1.6874C1.6874 37.7388 1.65805 37.6508 1.65805 37.6212C1.65805 37.5921 1.65805 37.5336 1.56999 37.5336H1.39387V37.7973H1.30581V37.1813H1.56999C1.6874 37.1813 1.77525 37.2109 1.77525 37.3279C1.77525 37.4159 1.74589 37.4455 1.71675 37.4744C1.74611 37.504 1.77525 37.5334 1.77525 37.5921V37.7093C1.77525 37.7388 1.77525 37.7388 1.8046 37.7388V37.7973ZM1.6874 37.3575C1.6874 37.2694 1.62869 37.2694 1.59934 37.2694H1.39387V37.4455H1.56999C1.62869 37.4455 1.6874 37.4159 1.6874 37.3575V37.3575ZM2.18619 37.4747C2.18619 37.1228 1.89287 36.8291 1.51128 36.8291C1.15925 36.8291 0.865723 37.1228 0.865723 37.4747C0.865723 37.856 1.15925 38.1498 1.51128 38.1498C1.89266 38.1496 2.18619 37.856 2.18619 37.4747ZM2.09813 37.4747C2.09813 37.7975 1.83416 38.0321 1.51128 38.0321C1.18839 38.0321 0.953782 37.7973 0.953782 37.4747C0.953782 37.1813 1.18861 36.9172 1.51128 36.9172C1.83395 36.9172 2.09813 37.1813 2.09813 37.4747ZM38.248 25.6204C38.248 26.5008 37.6905 26.9111 36.6928 26.9111H34.7859V26.0307H36.6928C36.8689 26.0307 37.0156 26.0016 37.0746 25.9431C37.1331 25.8842 37.1918 25.7961 37.1918 25.6789C37.1918 25.5613 37.1333 25.4441 37.0746 25.3856C37.0156 25.3267 36.8984 25.2976 36.7223 25.2976C35.813 25.268 34.6684 25.3267 34.6684 24.0358C34.6684 23.4487 35.0498 22.8032 36.0768 22.8032H38.0426V23.6836H36.2233C36.0476 23.6836 35.93 23.6836 35.8419 23.7421C35.7539 23.8301 35.6954 23.9182 35.6954 24.0649C35.6954 24.2117 35.7834 24.2998 35.9006 24.3587C36.0183 24.3878 36.1357 24.4172 36.2824 24.4172H36.8104C37.3679 24.4172 37.7201 24.5344 37.9549 24.7401C38.1306 24.9453 38.248 25.2097 38.248 25.6204V25.6204ZM34.1107 24.7401C33.8759 24.5344 33.5237 24.4172 32.9662 24.4172H32.4382C32.2917 24.4172 32.1741 24.3876 32.0569 24.3587C31.9392 24.2998 31.8516 24.2117 31.8516 24.0649C31.8516 23.9182 31.8807 23.8301 31.9982 23.7421C32.0862 23.6836 32.2034 23.6836 32.3795 23.6836H34.1988V22.8032H32.233C31.1765 22.8032 30.8242 23.4487 30.8242 24.0358C30.8242 25.3265 31.9688 25.268 32.8785 25.2976C33.0542 25.2976 33.1719 25.3267 33.2304 25.3856C33.2889 25.4441 33.348 25.5613 33.348 25.6789C33.348 25.7961 33.2891 25.8842 33.2304 25.9431C33.1423 26.0016 33.0251 26.0307 32.849 26.0307H30.9417V26.9111H32.849C33.8463 26.9111 34.4041 26.5006 34.4041 25.6204C34.4041 25.2097 34.2869 24.9453 34.1107 24.7401V24.7401ZM30.3548 26.0605H28.0372V25.2388H30.2963V24.4176H28.0372V23.6544H30.3548V22.8036H27.0687V26.9113H30.3548V26.0605ZM26.0122 23.0091C25.6894 22.833 25.308 22.8034 24.8092 22.8034H22.5501V26.9111H23.5474V25.4148H24.6039C24.9557 25.4148 25.1614 25.4443 25.3082 25.5909C25.4843 25.7961 25.4843 26.1484 25.4843 26.4126V26.9111H26.4523V26.1188C26.4523 25.7374 26.4232 25.5613 26.3058 25.356C26.2177 25.2384 26.042 25.0919 25.8072 25.0038C26.071 24.9162 26.5115 24.5639 26.5115 23.9182C26.5112 23.4489 26.3351 23.1848 26.0122 23.0091V23.0091ZM20.4373 22.8034H17.2975L16.0358 24.1532L14.8327 22.8034H10.8715V26.9111H14.7742L16.036 25.5613L17.239 26.9111H19.1464V25.5324H20.3788C21.2296 25.5324 22.0808 25.2976 22.0808 24.1532C22.0806 23.0382 21.2002 22.8034 20.4373 22.8034ZM25.2199 24.5054C25.0734 24.5639 24.9266 24.5639 24.7505 24.5639L23.5474 24.5935V23.6542H24.7505C24.9266 23.6542 25.1027 23.6542 25.2199 23.7423C25.3375 23.8012 25.4252 23.9184 25.4252 24.0945C25.4252 24.2706 25.3375 24.4174 25.2199 24.5054V24.5054ZM20.4373 24.7107H19.1462V23.6542H20.4373C20.7895 23.6542 21.0241 23.8012 21.0241 24.1532C21.0241 24.5054 20.7893 24.7107 20.4373 24.7107ZM16.652 24.8573L18.1777 23.2437V26.5593L16.652 24.8573ZM14.2752 26.0605H11.8398V25.2388H14.0111V24.4176H11.8398V23.6544H14.3046L15.3902 24.8575L14.2752 26.0605V26.0605ZM35.5191 19.8398H34.1107L32.2621 16.7588V19.8398H30.2672L29.8854 18.93H27.8315L27.4501 19.8398H26.3056C25.8361 19.8398 25.2199 19.7224 24.8681 19.3701C24.5452 19.0181 24.3691 18.5487 24.3691 17.815C24.3691 17.1988 24.4572 16.6413 24.897 16.2013C25.1904 15.8784 25.7187 15.7318 26.3934 15.7318H27.3323V16.6122H26.3934C26.0416 16.6122 25.8359 16.6709 25.6307 16.847C25.4545 17.0232 25.3665 17.3458 25.3665 17.7859C25.3665 18.226 25.4545 18.5489 25.6307 18.7544C25.7772 18.9009 26.0416 18.9596 26.3053 18.9596H26.7456L28.154 15.732H29.6212L31.2643 19.6052V15.7318H32.7903L34.5215 18.578V15.7318H35.5188V19.8398H35.5191V19.8398ZM23.8703 15.7318H22.8729V19.8398H23.8703V15.7318V15.7318ZM21.7869 15.9079C21.464 15.7318 21.1122 15.7318 20.6134 15.7318H18.3538V19.8398H19.3221V18.3432H20.3783C20.7306 18.3432 20.9654 18.3725 21.112 18.5193C21.2881 18.7248 21.2585 19.077 21.2585 19.3116V19.8398H22.2559V19.0181C22.2559 18.6661 22.2267 18.49 22.0802 18.2845C21.9921 18.1671 21.816 18.0203 21.6108 17.9325C21.8745 17.815 22.315 17.4924 22.315 16.8468C22.3152 16.3774 22.1095 16.1132 21.7869 15.9079ZM17.6496 18.989H15.3609V18.1673H17.6202V17.3165H15.3609V16.5829H17.6496V15.732H14.3633V19.84H17.6496V18.989ZM13.6297 15.7318H12.0159L10.8128 18.5193L9.52172 15.7318H7.93728V19.605L6.26479 15.7318H4.79777L3.03722 19.8398H4.09351L4.47489 18.93H6.52876L6.91014 19.8398H8.90551V16.6122L10.3432 19.8398H11.194L12.6319 16.6122V19.8398H13.6295V15.7318H13.6297ZM29.5336 18.0499L28.8584 16.4361L28.1837 18.0499H29.5336ZM21.0241 17.4045C20.8776 17.4926 20.7308 17.4926 20.5253 17.4926H19.3221V16.5831H20.5251C20.7012 16.5831 20.9063 16.5831 21.0239 16.6418C21.1411 16.7298 21.2 16.8472 21.2 17.0232C21.2 17.1991 21.1413 17.3456 21.0241 17.4045V17.4045ZM4.82691 18.0499L5.50182 16.4361L6.17673 18.0499H4.82691V18.0499ZM38.0134 2.85046H3.00765V17.6391L4.21071 14.9104H6.76337L7.11561 15.5853V14.9104H10.1086L10.7835 16.3774L11.429 14.9104H20.9654C21.4053 14.9104 21.7867 14.9984 22.0804 15.233V14.9104H24.6918V15.233C25.1316 14.9982 25.6891 14.9104 26.3349 14.9104H30.12L30.4722 15.5853V14.9104H33.2597L33.6707 15.5853V14.9104H36.3992V20.6615H33.6413L33.1134 19.7813V20.6615H29.6801L29.2987 19.7226H28.4475L28.0661 20.6615H26.2764C25.5722 20.6615 25.0438 20.4853 24.692 20.3094V20.6615H20.4373V19.341C20.4373 19.1649 20.4079 19.1355 20.2905 19.1355H20.1439V20.6612H11.9278V19.9276L11.6345 20.6612H9.90331L9.60999 19.957V20.6612H6.29414L5.94212 19.7224H5.09109L4.70971 20.6612H3.00765V38.0028H38.0134V27.4686C37.6321 27.6447 37.1037 27.7328 36.5756 27.7328H34.0227V27.3806C33.7294 27.6156 33.201 27.7328 32.7024 27.7328H24.6624V26.4126C24.6624 26.2364 24.6333 26.2364 24.4863 26.2364H24.3398V27.7328H21.6988V26.1777C21.2589 26.383 20.7599 26.383 20.3199 26.383H20.0263V27.7328H16.7988L16.036 26.8524L15.1852 27.7328H9.99116V21.9819H15.2728L16.0358 22.8619L16.8575 21.9819H20.4079C20.8184 21.9819 21.4936 22.0404 21.7869 22.3337V21.9819H24.9557C25.2786 21.9819 25.895 22.0404 26.3056 22.3337V21.9819H31.0884V22.3339C31.3526 22.0991 31.8516 21.9821 32.2915 21.9821H34.9616V22.3339C35.2553 22.1287 35.6658 21.9821 36.1942 21.9821H38.0134V2.85046V2.85046Z" fill="#9E9E9E"/>
</svg>
