<svg width="65" height="33" viewBox="0 0 65 33" fill="none" xmlns="http://www.w3.org/2000/svg">
<path d="M2.02802 25.9159C1.73741 25.4486 1.34992 24.7022 1.11059 24.1494C-0.28549 20.9128 -0.348171 17.5622 0.82568 14.3483C2.1192 10.8211 4.59226 8.12578 7.78901 6.74679C11.8063 5.02021 16.2453 5.35641 20.0973 7.64143C22.5419 9.04321 24.2742 11.2086 25.5905 14.2743C25.7558 14.6674 25.9039 15.0834 26.0521 15.4424L2.02802 25.9159ZM10.0512 11.9493C7.19639 13.1745 5.72622 15.8527 6.03393 18.9868L18.1143 13.7842C16.0345 11.3453 13.3335 10.5362 10.0512 11.9493V11.9493ZM19.6187 23.2662C19.613 23.2662 19.613 23.2719 19.613 23.2719L19.3623 23.1009C18.6386 24.2691 17.516 25.2207 16.0971 25.8361C13.3961 27.01 10.8946 26.708 9.09392 25.1295L8.92867 25.3803C8.92867 25.3803 8.92867 25.3746 8.92297 25.3746L5.85728 29.9617C6.62085 30.4916 7.43571 30.9361 8.29046 31.2951C11.6753 32.7026 15.1398 32.6342 18.5531 31.1526C21.0205 30.0814 22.9579 28.4516 24.2799 26.3832L19.6187 23.2662ZM34.4457 0V25.4942L38.4117 27.1011L36.1609 32.355L31.7846 30.5315C30.8045 30.1042 30.1321 29.4545 29.6306 28.7195C29.1463 27.973 28.7873 26.9416 28.7873 25.5626V0H34.4457ZM44.714 19.0039C44.714 16.8328 45.677 14.884 47.1928 13.562L43.1242 9.02612C40.3662 11.465 38.6282 15.0264 38.6282 18.9925C38.6225 22.9642 40.3605 26.5313 43.1128 28.9702L47.1757 24.4343C45.6656 23.1066 44.714 21.1692 44.714 19.0039V19.0039ZM51.9395 26.235C51.1417 26.235 50.3667 26.0982 49.6488 25.8589L47.7056 31.6313C49.0333 32.0758 50.4522 32.3208 51.9338 32.3208C58.3729 32.3265 63.7464 27.7564 64.9943 21.6878L59.0225 20.4683C58.3444 23.7676 55.4325 26.2407 51.9395 26.235V26.235ZM51.9566 5.68691C50.4807 5.68691 49.0618 5.92624 47.7341 6.36501L49.6602 12.1431C50.3838 11.9038 51.1531 11.7727 51.9509 11.7727C55.4496 11.7784 58.3672 14.2629 59.0282 17.5679L65 16.3598C63.7749 10.2797 58.4014 5.69261 51.9566 5.68691V5.68691Z" fill="#9E9E9E"/>
</svg>
